<svg width="237" height="213" viewBox="0 0 237 213" fill="none" xmlns="http://www.w3.org/2000/svg">
<g clip-path="url(#clip0_7_158)">
<path d="M121.375 0.464377L113.664 2.45578L18.6557 26.9903L10.9442 28.9817C7.20107 29.9528 3.99549 32.3711 2.0307 35.706C0.0659177 39.0409 -0.497619 43.0201 0.463728 46.7705L33.9028 176.619C34.8725 180.367 37.2875 183.577 40.6178 185.545C43.9481 187.512 47.9217 188.076 51.667 187.114L51.6869 187.109L162.078 158.602L162.098 158.596C165.841 157.625 169.047 155.207 171.012 151.872C172.976 148.537 173.54 144.558 172.579 140.808L139.14 10.9594C138.17 7.21109 135.755 4.00107 132.425 2.03355C129.094 0.0660356 125.121 -0.498292 121.375 0.464377Z" fill="#D1D8FF"/>
<path d="M122.424 4.53549L113.29 6.89417L21.1263 30.6942L11.9926 33.0529C9.32704 33.7444 7.04426 35.4665 5.64508 37.8414C4.2459 40.2162 3.84459 43.0499 4.52918 45.7207L37.9682 175.569C38.6588 178.238 40.3785 180.524 42.7501 181.925C45.1217 183.326 47.9515 183.728 50.6185 183.043L50.6385 183.037L161.03 154.53L161.05 154.525C163.715 153.834 165.998 152.112 167.397 149.737C168.796 147.362 169.198 144.528 168.513 141.857L135.074 12.0092C134.383 9.34001 132.664 7.05409 130.292 5.65298C127.921 4.25187 125.091 3.84998 122.424 4.53549Z" fill="white"/>
<path d="M115.527 46.5838L59.6828 61.0048C59.0591 61.1658 58.397 61.0722 57.8422 60.7444C57.2874 60.4167 56.8854 59.8817 56.7246 59.2571C56.5637 58.6325 56.6572 57.9695 56.9845 57.414C57.3118 56.8584 57.8461 56.4558 58.4698 56.2948L114.314 41.8738C114.938 41.7133 115.599 41.8074 116.154 42.1352C116.708 42.463 117.11 42.9978 117.27 43.622C117.431 44.2462 117.338 44.9088 117.011 45.4642C116.684 46.0195 116.15 46.4222 115.527 46.5838Z" fill="#E5E5E5"/>
<path d="M127.275 52.0267L61.7296 68.9529C61.1059 69.114 60.4438 69.0203 59.889 68.6926C59.3342 68.3648 58.9322 67.8298 58.7714 67.2052C58.6105 66.5806 58.7041 65.9176 59.0314 65.3621C59.3587 64.8066 59.8929 64.404 60.5167 64.2429L126.062 47.3167C126.686 47.1557 127.348 47.2493 127.902 47.5771C128.457 47.9048 128.859 48.4398 129.02 49.0644C129.181 49.689 129.087 50.352 128.76 50.9075C128.433 51.4631 127.899 51.8657 127.275 52.0267Z" fill="#E5E5E5"/>
<path d="M124.7 82.2032L68.8556 96.6242C68.5468 96.704 68.2253 96.722 67.9095 96.6773C67.5937 96.6327 67.2898 96.5262 67.0151 96.3639C66.7404 96.2016 66.5003 95.9867 66.3085 95.7315C66.1167 95.4763 65.977 95.1858 65.8974 94.8765C65.8178 94.5672 65.7997 94.2453 65.8443 93.9291C65.8889 93.6128 65.9953 93.3085 66.1574 93.0334C66.3194 92.7583 66.534 92.5179 66.7889 92.3259C67.0437 92.1338 67.3339 91.994 67.6427 91.9142L123.487 77.4932C123.796 77.4134 124.117 77.3954 124.433 77.44C124.749 77.4847 125.053 77.5912 125.328 77.7535C125.602 77.9158 125.842 78.1307 126.034 78.3859C126.226 78.6411 126.366 78.9316 126.445 79.2409C126.525 79.5501 126.543 79.8721 126.498 80.1883C126.454 80.5046 126.347 80.8089 126.185 81.084C126.023 81.3591 125.809 81.5995 125.554 81.7915C125.299 81.9836 125.009 82.1234 124.7 82.2032Z" fill="#E5E5E5"/>
<path d="M136.448 87.6462L70.9025 104.572C70.5936 104.652 70.2721 104.67 69.9563 104.625C69.6405 104.581 69.3366 104.474 69.0619 104.312C68.7872 104.15 68.5471 103.935 68.3553 103.68C68.1636 103.424 68.0239 103.134 67.9442 102.825C67.8646 102.515 67.8466 102.193 67.8912 101.877C67.9358 101.561 68.0422 101.257 68.2042 100.982C68.3663 100.706 68.5809 100.466 68.8357 100.274C69.0906 100.082 69.3807 99.9421 69.6895 99.8624L135.235 82.9362C135.859 82.7751 136.521 82.8688 137.075 83.1965C137.63 83.5243 138.032 84.0593 138.193 84.6839C138.354 85.3085 138.26 85.9715 137.933 86.527C137.606 87.0825 137.071 87.4851 136.448 87.6462Z" fill="#E5E5E5"/>
<path d="M133.873 117.823L78.0285 132.244C77.4049 132.404 76.7432 132.31 76.1888 131.982C75.6344 131.655 75.2327 131.12 75.0719 130.495C74.9111 129.871 75.0045 129.208 75.3314 128.653C75.6584 128.098 76.1922 127.695 76.8156 127.534L132.66 113.113C133.284 112.952 133.946 113.045 134.5 113.373C135.055 113.701 135.457 114.236 135.618 114.86C135.779 115.485 135.685 116.148 135.358 116.703C135.031 117.259 134.496 117.662 133.873 117.823Z" fill="#F2F2F2"/>
<path d="M145.621 123.266L80.0753 140.192C79.7664 140.272 79.4447 140.29 79.1287 140.246C78.8127 140.201 78.5085 140.095 78.2336 139.933C77.9587 139.77 77.7184 139.555 77.5264 139.3C77.3345 139.045 77.1947 138.754 77.115 138.445C77.0353 138.135 77.0173 137.813 77.062 137.497C77.1067 137.18 77.2132 136.876 77.3755 136.601C77.5378 136.325 77.7526 136.085 78.0078 135.893C78.2629 135.701 78.5533 135.561 78.8624 135.482L144.408 118.556C145.031 118.394 145.693 118.488 146.248 118.816C146.803 119.144 147.205 119.679 147.366 120.303C147.527 120.928 147.433 121.591 147.106 122.146C146.779 122.702 146.244 123.105 145.621 123.266Z" fill="#F2F2F2"/>
<path d="M50.1493 75.7914L30.3866 80.8949C30.0875 80.9718 29.7702 80.9267 29.5043 80.7696C29.2384 80.6125 29.0455 80.3562 28.9681 80.0569L24.4316 62.4409C24.3548 62.1415 24.3998 61.8237 24.5567 61.5574C24.7136 61.2911 24.9696 61.098 25.2685 61.0205L45.0312 55.917C45.3303 55.8402 45.6476 55.8852 45.9135 56.0423C46.1794 56.1994 46.3722 56.4558 46.4497 56.7551L50.9862 74.371C51.063 74.6705 51.018 74.9882 50.8611 75.2545C50.7042 75.5208 50.4482 75.7139 50.1493 75.7914Z" fill="#BBBDD0"/>
<path d="M59.3222 111.411L39.5594 116.514C39.2604 116.591 38.9431 116.546 38.6771 116.389C38.4112 116.232 38.2184 115.976 38.141 115.676L33.6044 98.0603C33.5277 97.7608 33.5727 97.4431 33.7296 97.1768C33.8864 96.9105 34.1424 96.7174 34.4413 96.6399L54.204 91.5364C54.5031 91.4595 54.8204 91.5046 55.0863 91.6617C55.3523 91.8188 55.5451 92.0751 55.6225 92.3745L60.159 109.99C60.2358 110.29 60.1908 110.608 60.0339 110.874C59.877 111.14 59.6211 111.333 59.3222 111.411Z" fill="#BBBDD0"/>
<path d="M68.4951 147.03L48.7323 152.134C48.4332 152.211 48.1159 152.165 47.85 152.008C47.5841 151.851 47.3912 151.595 47.3138 151.296L42.7773 133.68C42.7005 133.38 42.7455 133.063 42.9024 132.796C43.0593 132.53 43.3153 132.337 43.6142 132.259L63.3769 127.156C63.676 127.079 63.9933 127.124 64.2592 127.281C64.5251 127.438 64.718 127.695 64.7954 127.994L69.3319 145.61C69.4087 145.909 69.3637 146.227 69.2068 146.493C69.0499 146.76 68.7939 146.953 68.4951 147.03Z" fill="#BBBDD0"/>
<path d="M198.395 33.3793H84.3515C80.4849 33.3836 76.7778 34.9237 74.0436 37.6617C71.3095 40.3996 69.7715 44.1118 69.7672 47.9838V182.08C69.7715 185.952 71.3095 189.664 74.0436 192.402C76.7778 195.14 80.4849 196.68 84.3515 196.685H198.395C202.262 196.68 205.969 195.14 208.703 192.402C211.438 189.664 212.976 185.952 212.98 182.08V47.9838C212.976 44.1118 211.438 40.3996 208.703 37.6617C205.969 34.9237 202.262 33.3836 198.395 33.3793Z" fill="#D1D8FF"/>
<path d="M198.396 37.5836H84.3515C81.598 37.5867 78.9581 38.6834 77.011 40.6332C75.064 42.5829 73.9688 45.2265 73.9657 47.9838V182.08C73.9688 184.838 75.064 187.481 77.011 189.431C78.9581 191.381 81.598 192.477 84.3515 192.48H198.396C201.149 192.477 203.789 191.381 205.736 189.431C207.683 187.481 208.778 184.838 208.781 182.08V47.9838C208.778 45.2265 207.683 42.583 205.736 40.6332C203.789 38.6835 201.149 37.5867 198.396 37.5836Z" fill="white"/>
<path d="M210.377 213C225.08 213 237 201.064 237 186.34C237 171.616 225.08 159.68 210.377 159.68C195.673 159.68 183.754 171.616 183.754 186.34C183.754 201.064 195.673 213 210.377 213Z" fill="#7A8DFD"/>
<path d="M223.11 182.863H213.849V173.59C213.849 172.667 213.483 171.783 212.832 171.131C212.181 170.479 211.298 170.112 210.377 170.112C209.456 170.112 208.573 170.479 207.921 171.131C207.27 171.783 206.904 172.667 206.904 173.59V182.863H197.644C196.723 182.863 195.84 183.229 195.188 183.881C194.537 184.533 194.171 185.418 194.171 186.34C194.171 187.262 194.537 188.147 195.188 188.799C195.84 189.451 196.723 189.817 197.644 189.817H206.904V199.09C206.904 200.013 207.27 200.897 207.921 201.549C208.573 202.201 209.456 202.568 210.377 202.568C211.298 202.568 212.181 202.201 212.832 201.549C213.483 200.897 213.849 200.013 213.849 199.09V189.817H223.11C224.031 189.817 224.914 189.451 225.565 188.799C226.216 188.147 226.582 187.262 226.582 186.34C226.582 185.418 226.216 184.533 225.565 183.881C224.914 183.229 224.031 182.863 223.11 182.863Z" fill="white"/>
<path d="M181.232 111.269H123.561C123.241 111.27 122.925 111.207 122.63 111.085C122.335 110.963 122.067 110.784 121.842 110.558C121.616 110.332 121.437 110.064 121.314 109.769C121.192 109.473 121.129 109.157 121.129 108.837C121.129 108.518 121.192 108.201 121.314 107.906C121.437 107.611 121.616 107.342 121.842 107.117C122.067 106.891 122.335 106.712 122.63 106.589C122.925 106.467 123.241 106.405 123.561 106.405H181.232C181.876 106.406 182.493 106.662 182.947 107.118C183.402 107.574 183.658 108.193 183.658 108.837C183.658 109.482 183.402 110.1 182.947 110.556C182.493 111.012 181.876 111.269 181.232 111.269Z" fill="#E5E5E5"/>
<path d="M191.25 119.477H123.561C123.241 119.478 122.925 119.415 122.63 119.293C122.335 119.171 122.067 118.992 121.842 118.766C121.616 118.54 121.437 118.272 121.314 117.977C121.192 117.681 121.129 117.365 121.129 117.045C121.129 116.726 121.192 116.409 121.314 116.114C121.437 115.819 121.616 115.551 121.842 115.325C122.067 115.099 122.335 114.92 122.63 114.798C122.925 114.676 123.241 114.613 123.561 114.613H191.25C191.894 114.613 192.512 114.87 192.968 115.326C193.423 115.782 193.679 116.4 193.679 117.045C193.679 117.69 193.423 118.309 192.968 118.765C192.512 119.221 191.894 119.477 191.25 119.477Z" fill="#E5E5E5"/>
<path d="M181.232 148.054H123.561C123.241 148.054 122.925 147.992 122.63 147.87C122.335 147.748 122.067 147.568 121.842 147.343C121.616 147.117 121.437 146.848 121.314 146.553C121.192 146.258 121.129 145.941 121.129 145.622C121.129 145.302 121.192 144.986 121.314 144.691C121.437 144.395 121.616 144.127 121.842 143.901C122.067 143.675 122.335 143.496 122.63 143.374C122.925 143.252 123.241 143.189 123.561 143.19H181.232C181.876 143.19 182.494 143.446 182.949 143.902C183.405 144.358 183.661 144.977 183.661 145.622C183.661 146.267 183.405 146.885 182.949 147.342C182.494 147.798 181.876 148.054 181.232 148.054Z" fill="#E5E5E5"/>
<path d="M191.25 156.262H123.561C123.241 156.262 122.925 156.2 122.63 156.078C122.335 155.956 122.067 155.777 121.842 155.551C121.616 155.325 121.437 155.057 121.314 154.761C121.192 154.466 121.129 154.15 121.129 153.83C121.129 153.51 121.192 153.194 121.314 152.899C121.437 152.603 121.616 152.335 121.842 152.109C122.067 151.883 122.335 151.704 122.63 151.582C122.925 151.46 123.241 151.398 123.561 151.398H191.25C191.569 151.398 191.886 151.46 192.181 151.582C192.476 151.704 192.744 151.883 192.969 152.109C193.195 152.335 193.374 152.603 193.497 152.899C193.619 153.194 193.682 153.51 193.682 153.83C193.682 154.15 193.619 154.466 193.497 154.761C193.374 155.057 193.195 155.325 192.969 155.551C192.744 155.777 192.476 155.956 192.181 156.078C191.886 156.2 191.569 156.262 191.25 156.262Z" fill="#E5E5E5"/>
<path d="M110.642 123.204H90.2326C89.9239 123.203 89.6279 123.08 89.4095 122.862C89.1912 122.643 89.0684 122.347 89.0681 122.037V103.845C89.0684 103.536 89.1912 103.24 89.4095 103.021C89.6279 102.802 89.9239 102.679 90.2326 102.679H110.642C110.951 102.679 111.247 102.802 111.465 103.021C111.683 103.24 111.806 103.536 111.807 103.845V122.037C111.806 122.347 111.683 122.643 111.465 122.862C111.247 123.08 110.951 123.203 110.642 123.204Z" fill="#E5E5E5"/>
<path d="M110.642 159.988H90.2326C89.9239 159.988 89.6279 159.865 89.4095 159.646C89.1912 159.428 89.0684 159.131 89.0681 158.822V140.63C89.0684 140.321 89.1912 140.024 89.4095 139.806C89.6279 139.587 89.9239 139.464 90.2326 139.464H110.642C110.951 139.464 111.247 139.587 111.465 139.806C111.683 140.024 111.806 140.321 111.807 140.63V158.822C111.806 159.131 111.683 159.428 111.465 159.646C111.247 159.865 110.951 159.988 110.642 159.988Z" fill="#E5E5E5"/>
<path d="M181.296 70.3205H138.777C138.133 70.3205 137.515 70.0643 137.06 69.6082C136.604 69.1521 136.349 68.5335 136.349 67.8885C136.349 67.2434 136.604 66.6248 137.06 66.1687C137.515 65.7126 138.133 65.4564 138.777 65.4564H181.296C181.94 65.4564 182.558 65.7126 183.013 66.1687C183.469 66.6248 183.725 67.2434 183.725 67.8885C183.725 68.5335 183.469 69.1521 183.013 69.6082C182.558 70.0643 181.94 70.3205 181.296 70.3205Z" fill="#BBBDD0"/>
<path d="M191.314 78.5286H138.777C138.458 78.5286 138.142 78.4657 137.848 78.3435C137.553 78.2213 137.285 78.0421 137.06 77.8163C136.834 77.5905 136.655 77.3224 136.533 77.0273C136.411 76.7322 136.349 76.416 136.349 76.0966C136.349 75.7772 136.411 75.461 136.533 75.1659C136.655 74.8708 136.834 74.6027 137.06 74.3769C137.285 74.151 137.553 73.9719 137.848 73.8497C138.142 73.7275 138.458 73.6646 138.777 73.6646H191.314C191.958 73.6646 192.576 73.9208 193.032 74.3769C193.487 74.833 193.743 75.4516 193.743 76.0966C193.743 76.7416 193.487 77.3602 193.032 77.8163C192.576 78.2724 191.958 78.5286 191.314 78.5286Z" fill="#BBBDD0"/>
<path d="M129.367 88.476H90.1686C89.8599 88.4757 89.5639 88.3527 89.3455 88.1341C89.1272 87.9155 89.0044 87.619 89.0041 87.3099V56.6753C89.0044 56.3661 89.1272 56.0697 89.3455 55.8511C89.5639 55.6325 89.8599 55.5095 90.1686 55.5092H129.367C129.676 55.5095 129.972 55.6325 130.19 55.8511C130.409 56.0697 130.531 56.3661 130.532 56.6753V87.3099C130.531 87.619 130.409 87.9155 130.19 88.1341C129.972 88.3527 129.676 88.4757 129.367 88.476Z" fill="#7A8DFD"/>
</g>
<defs>
<clipPath id="clip0_7_158">
<rect width="237" height="213" fill="white"/>
</clipPath>
</defs>
</svg>
